<svg preserveAspectRatio="none" width="100%" height="100%" overflow="visible" style="display: block;" viewBox="0 0 47.4879 47.4888" fill="none" xmlns="http://www.w3.org/2000/svg">
<g id="ICONE/blue">
<path id="Fill-17" fill-rule="evenodd" clip-rule="evenodd" d="M31.0593 30.4918C30.021 33.2453 27.3033 35.7484 23.5568 35.7484C16.6492 35.7484 11.3934 31.1892 11.3934 23.9508C11.3934 17.0534 16.3577 11.7404 23.7474 11.7404C30.1372 11.7404 34.2426 16.7859 34.2426 16.7859L34.364 16.9354L34.2153 17.0585C34.2153 17.0585 31.5814 19.2334 31.4268 19.348L31.2712 19.4625L31.155 19.3078C28.8416 16.2125 25.7642 15.4057 23.5884 15.4057C18.9702 15.4057 15.3134 19.3326 15.3134 23.9508C15.3134 28.1742 18.5925 32.1241 23.5825 32.1241C27.6289 32.1241 30.1662 28.4699 30.5397 26.1052H24.3636V22.0972L24.5823 22.1237C27.905 22.5305 31.3541 22.5535 34.6776 22.1066L34.752 22.0963L35.0366 22.2946L35.0195 22.4134C34.3648 27.0854 34.5084 31.7515 35.2758 34.9297L35.3339 35.1699H31.0593V30.4918Z" fill="#0F00B8"/>
<path id="Fill-18" fill-rule="evenodd" clip-rule="evenodd" d="M23.744 0C10.6388 0 0 10.6397 0 23.744C0 36.8491 10.6388 47.4888 23.744 47.4888C36.8491 47.4888 47.4879 36.8491 47.4879 23.744C47.4879 10.6397 36.8491 0 23.744 0ZM23.744 3.93198C34.6785 3.93198 43.556 12.8095 43.556 23.744C43.556 34.6785 34.6785 43.556 23.744 43.556C12.8095 43.556 3.93198 34.6785 3.93198 23.744C3.93198 12.8095 12.8095 3.93198 23.744 3.93198Z" fill="#0F00B8"/>
</g>
</svg>
